<?xml version="1.0" encoding="UTF-8"?>
<svg width="20px" height="19px" viewBox="0 0 20 19" version="1.1" xmlns="http://www.w3.org/2000/svg" xmlns:xlink="http://www.w3.org/1999/xlink">
    <title>github</title>
    <g id="Page-1" stroke="none" stroke-width="1" fill="none" fill-rule="evenodd">
        <path d="M9.73974621,-8.47375811e-05 C4.963823,0.000616948169 0.892964877,3.46420655 0.127430648,8.1783767 C-0.638103581,12.8925469 2.12756689,17.4663205 6.65787127,18.9782018 C7.14484925,19.0686406 7.3535541,18.769497 7.3535541,18.5120943 C7.3535541,18.2546917 7.3535541,17.6703181 7.3535541,16.8563692 C4.64734789,17.4407428 4.07688796,15.5484855 4.07688796,15.5484855 C3.88658505,14.9521678 3.48605852,14.4453287 2.94988178,14.1223357 C2.06636458,13.5240484 3.01945006,13.5310053 3.01945006,13.5310053 C3.64483555,13.6193499 4.19432659,13.9916686 4.50821132,14.5397454 C5.06933729,15.5461714 6.33992194,15.9074161 7.34659727,15.3467375 C7.38587604,14.8531302 7.6034909,14.3906986 7.95879816,14.0458106 C5.80218139,13.7953648 3.52729853,12.9605454 3.52729853,9.23168538 C3.51152593,8.26322136 3.87042706,7.32609064 4.52908181,6.61591794 C4.23095463,5.7770599 4.26581228,4.85582222 4.6264774,4.04189146 C4.6264774,4.04189146 5.44042631,3.77753199 7.3048563,5.03671791 C8.89899532,4.60188084 10.5804971,4.60188084 12.1746361,5.03671791 C14.0321093,3.77753199 14.8460582,4.04189146 14.8460582,4.04189146 C15.2067233,4.85582222 15.241581,5.7770599 14.9434538,6.61591794 C15.6021085,7.32609064 15.9610097,8.26322136 15.9452371,9.23168538 C15.9452371,12.974459 13.6703542,13.7953648 11.4998238,14.0388537 C11.9702483,14.5156722 12.2112669,15.1727648 12.1607225,15.8406723 C12.1607225,17.1415992 12.1607225,18.1920802 12.1607225,18.5120943 C12.1607225,18.8321084 12.3346432,19.0755974 12.8564053,18.9782018 C17.3930464,17.4643007 20.159244,12.8805169 19.3842175,8.1611586 C18.6091909,3.44180032 14.5222911,-0.0165481686 9.73974621,-8.47375811e-05 Z" id="github" fill="#000000" fill-rule="nonzero"></path>
    </g>
</svg>