<?xml version="1.0" encoding="UTF-8"?>
<svg width="24px" height="19px" viewBox="0 0 24 19" version="1.1" xmlns="http://www.w3.org/2000/svg" xmlns:xlink="http://www.w3.org/1999/xlink">
    <title>twitter</title>
    <g id="Page-1" stroke="none" stroke-width="1" fill="none" fill-rule="evenodd">
        <path d="M7.35460441,18.9997314 C10.9807996,19.0225383 14.4650831,17.5921212 17.029241,15.0279633 C19.5933989,12.4638053 21.0238161,8.97952187 21.0010091,5.35332667 C21.0010091,5.14076585 21.0010091,4.93883307 21.0010091,4.72627225 C21.9315927,4.04447145 22.7370572,3.20664457 23.3816903,2.24993868 C22.5054269,2.63318101 21.5782286,2.88735507 20.6290277,3.0045296 C21.6354081,2.40487463 22.3905195,1.46098549 22.7546359,0.347519335 C21.8167338,0.910211278 20.7882525,1.30578102 19.7150162,1.51660385 C18.2290479,-0.0667353232 15.8657035,-0.456400748 13.9500891,0.566089512 C12.0344748,1.58857977 11.042938,3.76896751 11.5314246,5.88472873 C7.67536072,5.69545644 4.08168024,3.87543116 1.64734636,0.878921388 C0.387881896,3.06487587 1.03842791,5.85293023 3.13527211,7.25574602 C2.38983448,7.2269961 1.66164395,7.02310275 1.0096639,6.66057572 L1.0096639,6.71371593 C0.996014391,8.98221432 2.56779104,10.9524696 4.78261848,11.4431942 C4.08928548,11.6296741 3.3630227,11.6587246 2.65701027,11.5282185 C3.29462842,13.4520321 5.07331431,14.766898 7.09953143,14.8122832 C5.40883447,16.1732293 3.30754348,16.9223527 1.13720039,16.9378914 C0.756666759,16.926878 0.377026739,16.8949456 0,16.8422391 C2.19676843,18.2418438 4.7498888,18.9797398 7.35460441,18.9678473" id="twitter" fill="#000000" fill-rule="nonzero"></path>
    </g>
</svg>